
<svg width="83px" height="16px" viewBox="0 0 83 16" version="1.1" xmlns="http://www.w3.org/2000/svg" xmlns:xlink="http://www.w3.org/1999/xlink">
    <g id="Page-1" stroke="none" stroke-width="1" fill="none" fill-rule="evenodd">
        <g id="logo-4" transform="translate(-5.000000, -4.000000)" fill="#2B2E34" font-family="Helvetica" font-size="19" font-weight="normal">
            <g id="logo-3">
                <g id="logo-2">
                    <g id="logo">
                        <text id="DRYCC">
                            <tspan x="21.7763672" y="19">DRYCC</tspan>
                        </text>
                    </g>
                </g>
            </g>
        </g>
        <circle id="Oval" stroke="#FF2F57" fill="#FF2F57" cx="3" cy="3" r="2"></circle>
        <circle id="Oval" stroke="#FF2F57" fill="#FF2F57" cx="3" cy="13" r="2"></circle>
        <circle id="Oval" stroke="#FF2F57" fill="#FF2F57" cx="13" cy="13" r="2"></circle>
        <circle id="Oval" stroke="#FF2F57" fill="#FF2F57" cx="13" cy="13" r="2"></circle>
        <circle id="Oval" stroke="#FF2F57" fill="#FF2F57" cx="13" cy="3" r="2"></circle>
        <rect id="Rectangle" stroke="#3FB1E5" fill="#3FB1E5" x="6.5" y="6.5" width="3" height="3"></rect>
        <polygon id="Triangle" stroke="#38BB4C" fill="#38BB4C" stroke-linejoin="round" points="8 11 10 15 6 15"></polygon>
        <polygon id="Triangle" stroke="#38BB4C" fill="#38BB4C" stroke-linejoin="round" transform="translate(3.000000, 8.000000) rotate(90.000000) translate(-3.000000, -8.000000) " points="3 6 5 10 1 10"></polygon>
        <polygon id="Triangle" stroke="#38BB4C" fill="#38BB4C" stroke-linejoin="round" transform="translate(8.000000, 3.000000) rotate(180.000000) translate(-8.000000, -3.000000) " points="8 1 10 5 6 5"></polygon>
        <polygon id="Triangle" stroke="#38BB4C" fill="#38BB4C" stroke-linejoin="round" transform="translate(13.000000, 8.000000) rotate(270.000000) translate(-13.000000, -8.000000) " points="13 6 15 10 11 10"></polygon>
    </g>
</svg>
