<?xml version="1.0" encoding="UTF-8"?>
<svg width="121px" height="121px" viewBox="0 0 200 200" version="1.1" xmlns="http://www.w3.org/2000/svg" xmlns:xlink="http://www.w3.org/1999/xlink">
    <!-- Generator: Sketch 63.1 (92452) - https://sketch.com -->
    <title>helm</title>
    <desc>Created with Sketch.</desc>
    <g id="service-catalog" stroke="none" stroke-width="1" fill="none" fill-rule="evenodd">
        <g id="svc-cat" fill="#3371E3" fill-rule="nonzero">
            <path d="M191.839,92.169 L177.636,92.169 C176.108,76.16 169.75,61.539 160.027,49.794 L170.079,39.719 C173.005,36.787 172.999,32.038 170.067,29.113 C167.134,26.186 162.385,26.192 159.461,29.125 L149.409,39.199 C137.687,29.54 123.117,23.226 107.17,21.703 L107.17,7.5 C107.17,3.358 103.812,0 99.67,0 C95.528,0 92.17,3.358 92.17,7.5 L92.17,21.704 C76.16,23.232 61.54,29.59 49.794,39.312 L39.72,29.26 C36.787,26.333 32.038,26.34 29.114,29.272 C26.188,32.204 26.194,36.953 29.126,39.878 L39.199,49.93 C29.54,61.652 23.226,76.222 21.703,92.169 L7.5,92.169 C3.358,92.169 0,95.527 0,99.669 C0,103.811 3.358,107.169 7.5,107.169 L21.703,107.169 C23.231,123.178 29.589,137.799 39.312,149.544 L29.26,159.619 C26.334,162.551 26.34,167.3 29.272,170.225 C30.736,171.686 32.653,172.416 34.569,172.416 C36.491,172.416 38.413,171.682 39.878,170.213 L49.93,160.14 C61.652,169.799 76.222,176.114 92.17,177.636 L92.17,191.839 C92.17,195.981 95.528,199.339 99.67,199.339 C103.812,199.339 107.17,195.981 107.17,191.839 L107.17,177.636 C123.179,176.108 137.8,169.75 149.545,160.027 L159.62,170.079 C161.084,171.54 163.001,172.27 164.917,172.27 C166.839,172.27 168.761,171.536 170.226,170.067 C173.152,167.135 173.146,162.386 170.214,159.461 L160.14,149.409 C169.799,137.687 176.114,123.117 177.636,107.169 L191.839,107.169 C195.981,107.169 199.339,103.811 199.339,99.669 C199.339,95.527 195.981,92.169 191.839,92.169 Z M157.504,92.169 L124.042,92.169 C123.563,90.617 122.938,89.13 122.187,87.719 L145.811,64.042 C151.997,72.035 156.149,81.667 157.504,92.169 Z M135.193,53.447 L111.568,77.126 C110.172,76.386 108.703,75.77 107.169,75.297 L107.169,41.835 C117.626,43.184 127.221,47.306 135.193,53.447 Z M92.169,41.835 L92.169,75.297 C90.617,75.776 89.129,76.401 87.719,77.152 L64.042,53.528 C72.035,47.343 81.667,43.19 92.169,41.835 Z M53.447,64.145 L77.126,87.77 C76.386,89.165 75.77,90.635 75.297,92.169 L41.834,92.169 C43.184,81.712 47.305,72.117 53.447,64.145 Z M41.834,107.169 L75.296,107.169 C75.775,108.721 76.4,110.208 77.151,111.619 L53.527,135.296 C47.342,127.304 43.189,117.672 41.834,107.169 Z M64.145,145.892 L87.77,122.213 C89.166,122.953 90.635,123.569 92.169,124.042 L92.169,157.504 C81.712,156.155 72.117,152.034 64.145,145.892 Z M107.169,157.504 L107.169,124.042 C108.721,123.564 110.208,122.939 111.619,122.187 L135.296,145.811 C127.304,151.997 117.672,156.149 107.169,157.504 Z M145.892,135.194 L122.213,111.569 C122.953,110.173 123.569,108.703 124.042,107.17 L157.504,107.17 C156.155,117.627 152.033,127.222 145.892,135.194 Z" id="形状"></path>
        </g>
    </g>
</svg>
